<?xml version="1.0" standalone="no"?>
<!DOCTYPE svg PUBLIC "-//W3C//DTD SVG 20010904//EN"
 "http://www.w3.org/TR/2001/REC-SVG-20010904/DTD/svg10.dtd">
<svg version="1.0" xmlns="http://www.w3.org/2000/svg"
 width="285.000000pt" height="285.000000pt" viewBox="0 0 285.000000 285.000000"
 preserveAspectRatio="xMidYMid meet">
<metadata>
Created by potrace 1.11, written by Peter Selinger 2001-2013
</metadata>
<g transform="translate(0.000000,285.000000) scale(0.100000,-0.100000)"
fill="#000000" stroke="none">
<path d="M1396 2296 c-120 -210 -156 -275 -156 -279 0 -2 12 -7 27 -10 28 -5
31 -3 116 96 81 96 197 139 350 130 96 -5 104 -14 89 -94 -12 -66 -341 -897
-400 -1012 -42 -81 -70 -104 -143 -113 -30 -4 -61 -8 -69 -10 -8 -1 -21 -3
-28 -3 -14 -1 -43 -61 -36 -73 3 -4 129 -7 281 -8 151 0 279 -3 284 -6 13 -8
49 34 49 56 0 23 -6 26 -72 35 -26 3 -57 14 -70 24 -22 18 -22 19 -5 79 18 65
353 906 393 985 37 74 72 115 111 128 48 16 148 6 206 -19 57 -25 77 -64 77
-147 l0 -55 34 0 34 0 32 103 c18 56 41 127 50 157 l17 56 -371 -1 c-314 0
-608 8 -744 20 -29 2 -35 -2 -56 -39z"/>
<path d="M15 2262 c-3 -3 -5 -18 -5 -33 0 -23 5 -30 28 -34 73 -15 95 -36 139
-135 23 -52 41 -103 39 -113 -2 -9 0 -15 5 -11 8 5 13 -13 12 -44 -1 -7 2 -11
5 -7 7 7 113 -261 115 -292 1 -11 4 -20 7 -18 3 2 56 -129 119 -291 100 -259
117 -295 138 -300 15 -4 30 -1 38 7 7 8 112 259 235 559 122 299 231 557 242
572 20 29 73 60 121 72 22 5 27 12 27 36 0 19 -6 31 -17 34 -30 9 -367 4 -379
-5 -16 -13 -5 -57 15 -63 9 -2 30 -7 47 -11 47 -9 68 -37 61 -80 -3 -19 -63
-180 -133 -358 -70 -177 -141 -358 -158 -401 -17 -43 -35 -79 -41 -79 -14 1
-326 799 -333 850 -4 41 -3 43 31 58 20 8 45 15 55 15 28 0 45 25 38 54 l-6
24 -219 0 c-121 0 -223 -3 -226 -6z"/>
<path d="M2178 1803 c-9 -10 -115 -263 -237 -563 -199 -491 -225 -549 -260
-582 -21 -20 -57 -42 -80 -48 -22 -6 -42 -15 -42 -20 -1 -6 -2 -16 -3 -22 -5
-32 15 -36 192 -36 97 0 185 2 195 4 10 3 17 15 17 29 0 27 -18 39 -73 49 -23
4 -43 16 -53 31 -20 31 -13 58 83 300 41 105 90 231 110 280 19 50 41 104 48
120 6 17 27 67 45 113 18 45 35 82 39 82 6 0 313 -778 331 -840 13 -47 -8 -78
-59 -86 -57 -9 -66 -18 -62 -66 1 -15 21 -17 224 -15 l222 2 3 32 c3 28 0 32
-30 38 -63 14 -88 34 -114 93 -27 61 -83 202 -293 745 -72 186 -135 347 -141
357 -13 25 -42 26 -62 3z"/>
<path d="M1084 1800 c-20 -4 -31 -13 -38 -32 -5 -15 -7 -30 -5 -33 3 -3 30 -9
59 -15 30 -6 58 -14 63 -19 11 -11 -8 -96 -31 -151 -9 -19 -16 -37 -17 -40 -1
-3 -9 -22 -18 -44 -9 -21 -17 -40 -17 -42 0 -2 -9 -23 -19 -47 -11 -23 -40
-91 -65 -152 -226 -552 -243 -588 -290 -613 -33 -17 -33 -17 -98 -26 -26 -4
-50 -14 -60 -27 -40 -48 -37 -49 241 -49 l259 0 12 30 c7 17 11 32 9 34 -2 2
-31 9 -64 17 l-60 14 1 45 c2 38 80 247 164 435 5 11 24 58 44 105 19 47 58
141 86 210 113 272 134 304 213 316 28 4 55 9 60 10 4 1 14 2 22 3 14 1 51 59
43 66 -6 6 -462 10 -494 5z"/>
</g>
</svg>
